<svg width="51" height="52" viewBox="0 0 51 52" fill="none" xmlns="http://www.w3.org/2000/svg">
<path d="M5.87917 27.2381H14.1667C14.6861 27.2381 15.1819 27.3512 15.6542 27.5773C16.1264 27.8051 16.4806 28.146 16.7167 28.6L19.8333 34.0476L28.6167 18.6952C29.1361 17.746 29.9861 17.2714 31.1667 17.2714C32.3472 17.2714 33.1972 17.746 33.7167 18.6952L38.6042 27.2381H45.1208C44.4125 23.0286 42.2167 19.5 38.5333 16.6524C34.85 13.8048 30.5056 12.381 25.5 12.381C20.4944 12.381 16.15 13.8048 12.4667 16.6524C8.78333 19.5 6.5875 23.0286 5.87917 27.2381ZM25.5 47.0476C30.5056 47.0476 34.85 45.6238 38.5333 42.7762C42.2167 39.9286 44.4125 36.4 45.1208 32.1905H36.8333C36.3139 32.1905 35.8181 32.0774 35.3458 31.8512C34.8736 31.6234 34.5194 31.2825 34.2833 30.8286L31.1667 25.381L22.3833 40.7333C21.8639 41.6825 21.0139 42.1571 19.8333 42.1571C18.6528 42.1571 17.8028 41.6825 17.2833 40.7333L12.3958 32.1905H5.87917C6.5875 36.4 8.78333 39.9286 12.4667 42.7762C16.15 45.6238 20.4944 47.0476 25.5 47.0476ZM25.5 52C22.0056 52 18.7113 51.4123 15.6173 50.237C12.5252 49.0599 9.82222 47.4603 7.50833 45.4381C5.19444 43.4159 3.36411 41.0536 2.01733 38.3512C0.672444 35.6472 0 32.7683 0 29.7143H5.66667C5.66667 34.5016 7.60278 38.5873 11.475 41.9714C15.3472 45.3556 20.0222 47.0476 25.5 47.0476C30.9778 47.0476 35.6528 45.3556 39.525 41.9714C43.3972 38.5873 45.3333 34.5016 45.3333 29.7143H51C51 32.7683 50.3276 35.6472 48.9827 38.3512C47.6359 41.0536 45.8056 43.4159 43.4917 45.4381C41.1778 47.4603 38.4748 49.0599 35.3827 50.237C32.2887 51.4123 28.9944 52 25.5 52ZM0 29.7143C0 26.6603 0.672444 23.7813 2.01733 21.0773C3.36411 18.375 5.19444 16.0127 7.50833 13.9905C9.82222 11.9683 12.5252 10.3695 15.6173 9.1941C18.7113 8.01708 22.0056 7.42857 25.5 7.42857C28.4278 7.42857 31.2375 7.84127 33.9292 8.66667C36.6208 9.49206 39.1472 10.6889 41.5083 12.2571L45.475 8.79048L49.4417 12.2571L45.475 15.7238C47.2694 17.7873 48.6389 19.9952 49.5833 22.3476C50.5278 24.7 51 27.1556 51 29.7143H45.3333C45.3333 24.927 43.3972 20.8413 39.525 17.4571C35.6528 14.073 30.9778 12.381 25.5 12.381C20.0222 12.381 15.3472 14.073 11.475 17.4571C7.60278 20.8413 5.66667 24.927 5.66667 29.7143H0ZM17 4.95238V0H34V4.95238H17ZM25.5 47.0476C20.0222 47.0476 15.3472 45.3556 11.475 41.9714C7.60278 38.5873 5.66667 34.5016 5.66667 29.7143C5.66667 24.927 7.60278 20.8413 11.475 17.4571C15.3472 14.073 20.0222 12.381 25.5 12.381C30.9778 12.381 35.6528 14.073 39.525 17.4571C43.3972 20.8413 45.3333 24.927 45.3333 29.7143C45.3333 34.5016 43.3972 38.5873 39.525 41.9714C35.6528 45.3556 30.9778 47.0476 25.5 47.0476Z" fill="#1D3D61"/>
</svg>
